<svg width="1120" height="699" viewBox="0 0 1120 699" fill="none" xmlns="http://www.w3.org/2000/svg">
<g id="serverDown 1" clip-path="url(#clip0)">
<path id="Vector" d="M292.609 426C410.246 426 505.609 330.637 505.609 213C505.609 95.3633 410.246 0 292.609 0C174.972 0 79.6091 95.3633 79.6091 213C79.6091 330.637 174.972 426 292.609 426Z" fill="#F2F2F2"/>
<path id="Vector_2" d="M0 51.1424C0 128.64 48.6181 191.351 108.701 191.351Z" fill="#2F2E41"/>
<path id="Vector_3" d="M108.701 191.351C108.701 112.982 162.956 49.567 230.004 49.567Z" fill="#00ADBF"/>
<path id="Vector_4" d="M39.3843 58.1677C39.3843 131.782 70.3872 191.351 108.701 191.351Z" fill="#00ADBF"/>
<path id="Vector_5" d="M108.701 191.351C108.701 91.2128 171.411 10.1827 248.909 10.1827Z" fill="#2F2E41"/>
<path id="Vector_6" d="M85.8329 192.339C85.8329 192.339 101.248 191.864 105.894 188.556C110.54 185.248 129.607 181.298 130.76 186.603C131.912 191.909 153.927 212.991 136.522 213.132C119.118 213.272 96.0831 210.421 91.4462 207.596C86.8093 204.772 85.8329 192.339 85.8329 192.339Z" fill="#A8A8A8"/>
<path id="Vector_7" opacity="0.2" d="M136.833 211.285C119.429 211.425 96.3938 208.574 91.7568 205.749C88.2256 203.598 86.8184 195.88 86.3476 192.319C86.0215 192.333 85.8329 192.339 85.8329 192.339C85.8329 192.339 86.8093 204.772 91.4463 207.596C96.0832 210.421 119.118 213.272 136.523 213.132C141.546 213.091 143.282 211.304 143.186 208.656C142.488 210.256 140.572 211.255 136.833 211.285Z" fill="black"/>
<path id="Vector_8" d="M198.609 449.94C301.886 449.94 385.609 438.55 385.609 424.5C385.609 410.45 301.886 399.06 198.609 399.06C95.3319 399.06 11.6091 410.45 11.6091 424.5C11.6091 438.55 95.3319 449.94 198.609 449.94Z" fill="#3F3D56"/>
<path id="Vector_9" opacity="0.1" d="M198.609 445.859C285.318 445.859 355.609 436.296 355.609 424.5C355.609 412.704 285.318 403.141 198.609 403.141C111.9 403.141 41.6091 412.704 41.6091 424.5C41.6091 436.296 111.9 445.859 198.609 445.859Z" fill="black"/>
<path id="Vector_10" d="M836.609 699C992.906 699 1119.61 681.763 1119.61 660.5C1119.61 639.237 992.906 622 836.609 622C680.313 622 553.609 639.237 553.609 660.5C553.609 681.763 680.313 699 836.609 699Z" fill="#3F3D56"/>
<path id="Vector_11" d="M310.609 668.627C404.498 668.627 480.609 658.273 480.609 645.5C480.609 632.727 404.498 622.373 310.609 622.373C216.721 622.373 140.609 632.727 140.609 645.5C140.609 658.273 216.721 668.627 310.609 668.627Z" fill="#3F3D56"/>
<path id="Vector_12" d="M462.609 626C552.609 649 725.609 596 744.609 536" stroke="#2F2E41" stroke-width="2" stroke-miterlimit="10"/>
<path id="Vector_13" d="M309.609 259C309.609 259 439.609 223 447.609 339C455.609 455 340.609 488 430.609 511" stroke="#2F2E41" stroke-width="2" stroke-miterlimit="10"/>
<path id="Vector_14" d="M184.011 537.283C184.011 537.283 223.084 526.463 225.488 561.328C227.893 596.192 193.329 606.111 220.379 613.024" stroke="#2F2E41" stroke-width="2" stroke-miterlimit="10"/>
<path id="Vector_15" d="M778.705 563.24L770.827 613.535C770.827 613.535 732.045 634.138 759.314 634.744C786.582 635.35 915.047 634.744 915.047 634.744C915.047 634.744 939.892 634.744 900.504 612.929L892.626 560.21L778.705 563.24Z" fill="#2F2E41"/>
<path id="Vector_16" opacity="0.1" d="M753.828 634.198C760.021 628.688 770.827 622.946 770.827 622.946L778.705 572.651L892.626 572.758L900.504 622.34C909.689 627.427 915.379 631.327 918.707 634.318C923.766 633.164 929.295 628.875 900.504 612.929L892.626 560.21L778.705 563.24L770.827 613.535C770.827 613.535 738.239 630.85 753.828 634.198Z" fill="black"/>
<path id="Vector_17" d="M1073.64 212.689H596.479C586.512 212.689 578.433 220.768 578.433 230.734V552.163C578.433 562.129 586.512 570.208 596.479 570.208H1073.64C1083.61 570.208 1091.69 562.129 1091.69 552.163V230.734C1091.69 220.768 1083.61 212.689 1073.64 212.689Z" fill="#2F2E41"/>
<path id="Vector_18" d="M1074.42 231.777H595.703V499.613H1074.42V231.777Z" fill="#3F3D56"/>
<path id="Vector_19" d="M835.06 226.323C836.733 226.323 838.089 224.966 838.089 223.293C838.089 221.62 836.733 220.263 835.06 220.263C833.386 220.263 832.03 221.62 832.03 223.293C832.03 224.966 833.386 226.323 835.06 226.323Z" fill="#F2F2F2"/>
<path id="Vector_20" d="M1091.69 520.822V552.163C1091.69 554.533 1091.22 556.879 1090.31 559.069C1089.41 561.258 1088.08 563.248 1086.4 564.924C1084.73 566.599 1082.74 567.929 1080.55 568.835C1078.36 569.742 1076.01 570.209 1073.64 570.208H596.479C594.109 570.209 591.762 569.742 589.573 568.835C587.383 567.929 585.393 566.599 583.718 564.924C582.042 563.248 580.713 561.258 579.806 559.069C578.899 556.879 578.433 554.533 578.433 552.163V520.822H1091.69Z" fill="#2F2E41"/>
<path id="Vector_21" d="M968.978 667.466V673.526H642.968V668.678L643.417 667.466L651.452 645.651H962.312L968.978 667.466Z" fill="#2F2E41"/>
<path id="Vector_22" d="M1094.44 661.534C1093.84 664.073 1091.6 666.751 1086.54 669.284C1068.36 678.373 1031.39 666.86 1031.39 666.86C1031.39 666.86 1002.91 662.012 1002.91 649.287C1003.71 648.739 1004.55 648.244 1005.41 647.803C1013.05 643.759 1038.39 633.781 1083.33 648.225C1086.64 649.264 1089.59 651.202 1091.87 653.822C1093.69 655.954 1095.12 658.657 1094.44 661.534Z" fill="#2F2E41"/>
<path id="Vector_23" opacity="0.1" d="M1094.44 661.534C1072.19 670.06 1052.35 670.696 1032 656.559C1021.73 649.432 1012.41 647.669 1005.41 647.802C1013.05 643.759 1038.39 633.781 1083.33 648.225C1086.64 649.264 1089.59 651.202 1091.87 653.822C1093.69 655.953 1095.12 658.657 1094.44 661.534Z" fill="black"/>
<path id="Vector_24" d="M1066.54 656.559C1070.89 656.559 1074.42 655.473 1074.42 654.135C1074.42 652.796 1070.89 651.711 1066.54 651.711C1062.19 651.711 1058.66 652.796 1058.66 654.135C1058.66 655.473 1062.19 656.559 1066.54 656.559Z" fill="#F2F2F2"/>
<path id="Vector_25" d="M835.06 557.18C841.418 557.18 846.573 552.026 846.573 545.667C846.573 539.308 841.418 534.154 835.06 534.154C828.701 534.154 823.546 539.308 823.546 545.667C823.546 552.026 828.701 557.18 835.06 557.18Z" fill="#F2F2F2"/>
<path id="Vector_26" opacity="0.1" d="M968.978 667.466V673.526H642.968V668.678L643.417 667.466H968.978Z" fill="black"/>
<path id="Vector_27" d="M316.609 159H108.609V401H316.609V159Z" fill="#2F2E41"/>
<path id="Vector_28" d="M337.609 135H87.6091V221H337.609V135Z" fill="#3F3D56"/>
<path id="Vector_29" d="M337.609 237H87.6091V323H337.609V237Z" fill="#3F3D56"/>
<path id="Vector_30" d="M337.609 339H87.6091V425H337.609V339Z" fill="#3F3D56"/>
<path id="Vector_31" opacity="0.4" d="M287.609 150H271.609V166H287.609V150Z" fill="#00ADBF"/>
<path id="Vector_32" opacity="0.8" d="M310.609 150H294.609V166H310.609V150Z" fill="#00ADBF"/>
<path id="Vector_33" d="M333.609 150H317.609V166H333.609V150Z" fill="#00ADBF"/>
<path id="Vector_34" opacity="0.4" d="M287.609 251H271.609V267H287.609V251Z" fill="#00ADBF"/>
<path id="Vector_35" opacity="0.8" d="M310.609 251H294.609V267H310.609V251Z" fill="#00ADBF"/>
<path id="Vector_36" d="M333.609 251H317.609V267H333.609V251Z" fill="#00ADBF"/>
<path id="Vector_37" opacity="0.4" d="M287.609 352H271.609V368H287.609V352Z" fill="#00ADBF"/>
<path id="Vector_38" opacity="0.8" d="M310.609 352H294.609V368H310.609V352Z" fill="#00ADBF"/>
<path id="Vector_39" d="M333.609 352H317.609V368H333.609V352Z" fill="#00ADBF"/>
<path id="Vector_40" d="M316.609 617C360.24 617 395.609 581.63 395.609 538C395.609 494.37 360.24 459 316.609 459C272.979 459 237.609 494.37 237.609 538C237.609 581.63 272.979 617 316.609 617Z" fill="#2F2E41"/>
<path id="Vector_41" d="M304.609 600H280.609V643H304.609V600Z" fill="#2F2E41"/>
<path id="Vector_42" d="M352.609 600H328.609V643H352.609V600Z" fill="#2F2E41"/>
<path id="Vector_43" d="M300.609 651C311.655 651 320.609 647.642 320.609 643.5C320.609 639.358 311.655 636 300.609 636C289.563 636 280.609 639.358 280.609 643.5C280.609 647.642 289.563 651 300.609 651Z" fill="#2F2E41"/>
<path id="Vector_44" d="M348.609 650C359.655 650 368.609 646.642 368.609 642.5C368.609 638.358 359.655 635 348.609 635C337.563 635 328.609 638.358 328.609 642.5C328.609 646.642 337.563 650 348.609 650Z" fill="#2F2E41"/>
<path id="Vector_45" d="M318.609 545C333.521 545 345.609 532.912 345.609 518C345.609 503.088 333.521 491 318.609 491C303.697 491 291.609 503.088 291.609 518C291.609 532.912 303.697 545 318.609 545Z" fill="white"/>
<path id="Vector_46" d="M318.609 527C323.58 527 327.609 522.971 327.609 518C327.609 513.029 323.58 509 318.609 509C313.639 509 309.609 513.029 309.609 518C309.609 522.971 313.639 527 318.609 527Z" fill="#3F3D56"/>
<path id="Vector_47" d="M239.976 464.532C233.598 435.965 253.988 407.098 285.52 400.057C317.053 393.017 347.786 410.467 354.164 439.035C360.543 467.603 339.646 478.139 308.114 485.18C276.582 492.221 246.355 493.1 239.976 464.532Z" fill="#00ADBF"/>
<path id="Vector_48" d="M390.703 522.244C410.759 513.66 424.833 501.597 422.138 495.301C419.443 489.005 401 490.86 380.945 499.444C360.889 508.028 346.816 520.09 349.511 526.386C352.205 532.682 370.648 530.827 390.703 522.244Z" fill="#2F2E41"/>
<path id="Vector_49" d="M242.703 575.244C262.759 566.66 276.833 554.597 274.138 548.301C271.443 542.005 253 543.86 232.945 552.444C212.889 561.027 198.816 573.09 201.51 579.386C204.205 585.682 222.648 583.827 242.703 575.244Z" fill="#2F2E41"/>
<path id="Vector_50" d="M362.609 561C362.609 568.732 342.701 584 320.609 584C298.518 584 277.609 569.732 277.609 562C277.609 554.268 298.518 556 320.609 556C342.701 556 362.609 553.268 362.609 561Z" fill="white"/>
<path id="Page Not Found" d="M681.461 322.641V336H676.961V301.875H689.547C693.281 301.875 696.203 302.828 698.312 304.734C700.438 306.641 701.5 309.164 701.5 312.305C701.5 315.617 700.461 318.172 698.383 319.969C696.32 321.75 693.359 322.641 689.5 322.641H681.461ZM681.461 318.961H689.547C691.953 318.961 693.797 318.398 695.078 317.273C696.359 316.133 697 314.492 697 312.352C697 310.32 696.359 308.695 695.078 307.477C693.797 306.258 692.039 305.625 689.805 305.578H681.461V318.961ZM721.938 336C721.688 335.5 721.484 334.609 721.328 333.328C719.312 335.422 716.906 336.469 714.109 336.469C711.609 336.469 709.555 335.766 707.945 334.359C706.352 332.938 705.555 331.141 705.555 328.969C705.555 326.328 706.555 324.281 708.555 322.828C710.57 321.359 713.398 320.625 717.039 320.625H721.258V318.633C721.258 317.117 720.805 315.914 719.898 315.023C718.992 314.117 717.656 313.664 715.891 313.664C714.344 313.664 713.047 314.055 712 314.836C710.953 315.617 710.43 316.562 710.43 317.672H706.07C706.07 316.406 706.516 315.188 707.406 314.016C708.312 312.828 709.531 311.891 711.062 311.203C712.609 310.516 714.305 310.172 716.148 310.172C719.07 310.172 721.359 310.906 723.016 312.375C724.672 313.828 725.531 315.836 725.594 318.398V330.07C725.594 332.398 725.891 334.25 726.484 335.625V336H721.938ZM714.742 332.695C716.102 332.695 717.391 332.344 718.609 331.641C719.828 330.938 720.711 330.023 721.258 328.898V323.695H717.859C712.547 323.695 709.891 325.25 709.891 328.359C709.891 329.719 710.344 330.781 711.25 331.547C712.156 332.312 713.32 332.695 714.742 332.695ZM731.359 323.109C731.359 319.156 732.273 316.016 734.102 313.688C735.93 311.344 738.352 310.172 741.367 310.172C744.461 310.172 746.875 311.266 748.609 313.453L748.82 310.641H752.781V335.391C752.781 338.672 751.805 341.258 749.852 343.148C747.914 345.039 745.305 345.984 742.023 345.984C740.195 345.984 738.406 345.594 736.656 344.812C734.906 344.031 733.57 342.961 732.648 341.602L734.898 339C736.758 341.297 739.031 342.445 741.719 342.445C743.828 342.445 745.469 341.852 746.641 340.664C747.828 339.477 748.422 337.805 748.422 335.648V333.469C746.688 335.469 744.32 336.469 741.32 336.469C738.352 336.469 735.945 335.273 734.102 332.883C732.273 330.492 731.359 327.234 731.359 323.109ZM735.719 323.602C735.719 326.461 736.305 328.711 737.477 330.352C738.648 331.977 740.289 332.789 742.398 332.789C745.133 332.789 747.141 331.547 748.422 329.062V317.484C747.094 315.062 745.102 313.852 742.445 313.852C740.336 313.852 738.688 314.672 737.5 316.312C736.312 317.953 735.719 320.383 735.719 323.602ZM769.867 336.469C766.43 336.469 763.633 335.344 761.477 333.094C759.32 330.828 758.242 327.805 758.242 324.023V323.227C758.242 320.711 758.719 318.469 759.672 316.5C760.641 314.516 761.984 312.969 763.703 311.859C765.438 310.734 767.312 310.172 769.328 310.172C772.625 310.172 775.188 311.258 777.016 313.43C778.844 315.602 779.758 318.711 779.758 322.758V324.562H762.578C762.641 327.062 763.367 329.086 764.758 330.633C766.164 332.164 767.945 332.93 770.102 332.93C771.633 332.93 772.93 332.617 773.992 331.992C775.055 331.367 775.984 330.539 776.781 329.508L779.43 331.57C777.305 334.836 774.117 336.469 769.867 336.469ZM769.328 313.734C767.578 313.734 766.109 314.375 764.922 315.656C763.734 316.922 763 318.703 762.719 321H775.422V320.672C775.297 318.469 774.703 316.766 773.641 315.562C772.578 314.344 771.141 313.734 769.328 313.734ZM823.609 336H819.086L801.906 309.703V336H797.383V301.875H801.906L819.133 328.289V301.875H823.609V336ZM829.773 323.086C829.773 320.602 830.258 318.367 831.227 316.383C832.211 314.398 833.57 312.867 835.305 311.789C837.055 310.711 839.047 310.172 841.281 310.172C844.734 310.172 847.523 311.367 849.648 313.758C851.789 316.148 852.859 319.328 852.859 323.297V323.602C852.859 326.07 852.383 328.289 851.43 330.258C850.492 332.211 849.141 333.734 847.375 334.828C845.625 335.922 843.609 336.469 841.328 336.469C837.891 336.469 835.102 335.273 832.961 332.883C830.836 330.492 829.773 327.328 829.773 323.391V323.086ZM834.133 323.602C834.133 326.414 834.781 328.672 836.078 330.375C837.391 332.078 839.141 332.93 841.328 332.93C843.531 332.93 845.281 332.07 846.578 330.352C847.875 328.617 848.523 326.195 848.523 323.086C848.523 320.305 847.859 318.055 846.531 316.336C845.219 314.602 843.469 313.734 841.281 313.734C839.141 313.734 837.414 314.586 836.102 316.289C834.789 317.992 834.133 320.43 834.133 323.602ZM864.18 304.5V310.641H868.914V313.992H864.18V329.719C864.18 330.734 864.391 331.5 864.812 332.016C865.234 332.516 865.953 332.766 866.969 332.766C867.469 332.766 868.156 332.672 869.031 332.484V336C867.891 336.312 866.781 336.469 865.703 336.469C863.766 336.469 862.305 335.883 861.32 334.711C860.336 333.539 859.844 331.875 859.844 329.719V313.992H855.227V310.641H859.844V304.5H864.18ZM905.406 320.93H891.086V336H886.586V301.875H907.727V305.578H891.086V317.25H905.406V320.93ZM910.773 323.086C910.773 320.602 911.258 318.367 912.227 316.383C913.211 314.398 914.57 312.867 916.305 311.789C918.055 310.711 920.047 310.172 922.281 310.172C925.734 310.172 928.523 311.367 930.648 313.758C932.789 316.148 933.859 319.328 933.859 323.297V323.602C933.859 326.07 933.383 328.289 932.43 330.258C931.492 332.211 930.141 333.734 928.375 334.828C926.625 335.922 924.609 336.469 922.328 336.469C918.891 336.469 916.102 335.273 913.961 332.883C911.836 330.492 910.773 327.328 910.773 323.391V323.086ZM915.133 323.602C915.133 326.414 915.781 328.672 917.078 330.375C918.391 332.078 920.141 332.93 922.328 332.93C924.531 332.93 926.281 332.07 927.578 330.352C928.875 328.617 929.523 326.195 929.523 323.086C929.523 320.305 928.859 318.055 927.531 316.336C926.219 314.602 924.469 313.734 922.281 313.734C920.141 313.734 918.414 314.586 917.102 316.289C915.789 317.992 915.133 320.43 915.133 323.602ZM954.953 333.492C953.266 335.477 950.789 336.469 947.523 336.469C944.82 336.469 942.758 335.688 941.336 334.125C939.93 332.547 939.219 330.219 939.203 327.141V310.641H943.539V327.023C943.539 330.867 945.102 332.789 948.227 332.789C951.539 332.789 953.742 331.555 954.836 329.086V310.641H959.172V336H955.047L954.953 333.492ZM969.883 310.641L970.023 313.828C971.961 311.391 974.492 310.172 977.617 310.172C982.977 310.172 985.68 313.195 985.727 319.242V336H981.391V319.219C981.375 317.391 980.953 316.039 980.125 315.164C979.312 314.289 978.039 313.852 976.305 313.852C974.898 313.852 973.664 314.227 972.602 314.977C971.539 315.727 970.711 316.711 970.117 317.93V336H965.781V310.641H969.883ZM991.211 323.109C991.211 319.219 992.133 316.094 993.977 313.734C995.82 311.359 998.234 310.172 1001.22 310.172C1004.19 310.172 1006.54 311.188 1008.27 313.219V300H1012.61V336H1008.62L1008.41 333.281C1006.68 335.406 1004.27 336.469 1001.17 336.469C998.234 336.469 995.836 335.266 993.977 332.859C992.133 330.453 991.211 327.312 991.211 323.438V323.109ZM995.547 323.602C995.547 326.477 996.141 328.727 997.328 330.352C998.516 331.977 1000.16 332.789 1002.25 332.789C1005 332.789 1007.01 331.555 1008.27 329.086V317.438C1006.98 315.047 1004.98 313.852 1002.3 313.852C1000.17 313.852 998.516 314.672 997.328 316.312C996.141 317.953 995.547 320.383 995.547 323.602Z" fill="#FF5555"/>
<g id="Group 1">
<path id="Ellipse 1" d="M865.5 408.083C865.5 424.854 850.627 438.667 832 438.667C813.373 438.667 798.5 424.854 798.5 408.083C798.5 391.313 813.373 377.5 832 377.5C850.627 377.5 865.5 391.313 865.5 408.083Z" stroke="#FF6161" stroke-width="3"/>
<path id="!" d="M833.415 414.256H829.501L829.196 389.764H833.743L833.415 414.256ZM829.032 421.709C829.032 421.006 829.243 420.42 829.665 419.951C830.103 419.467 830.743 419.225 831.587 419.225C832.431 419.225 833.071 419.467 833.509 419.951C833.946 420.42 834.165 421.006 834.165 421.709C834.165 422.412 833.946 422.998 833.509 423.467C833.071 423.92 832.431 424.147 831.587 424.147C830.743 424.147 830.103 423.92 829.665 423.467C829.243 422.998 829.032 422.412 829.032 421.709Z" fill="#FF6161"/>
</g>
</g>
<defs>
<clipPath id="clip0">
<rect width="1119.61" height="699" fill="white"/>
</clipPath>
</defs>
</svg>
